# xmcd
#
# Track frame offsets:
#	150
#	15221
#	30226
#	44029
#	64538
#	81869
#	99024
#	116780
#	130226
#	145642
#	163775
#	178863
#
# Disc length: 2585 seconds
#
# Revision: 1
# Processed by: cddbd v1.5.2PL0 Copyright (c) Steve Scherf et al.
# Submitted via: audiograbber 1.83.01
#
DISCID=910a170c
DTITLE=Mclennan, Boomer - The Art Of Living
DYEAR=2009
DGENRE=Country
TTITLE0=Hats Off
TTITLE1=Your Kiss
TTITLE2=Black Denim
TTITLE3=Only Love
TTITLE4=Hollywood
TTITLE5=Run To You
TTITLE6=Close Your Eyes
TTITLE7=Swing You
TTITLE8=Never
TTITLE9=Weather
TTITLE10=Searching
TTITLE11=When I Die 
EXTD=
EXTT0=
EXTT1=
EXTT2=
EXTT3=
EXTT4=
EXTT5=
EXTT6=
EXTT7=
EXTT8=
EXTT9=
EXTT10=
EXTT11=
PLAYORDER=
